<?xml version="1.0" encoding="utf-8"?>
<!-- Generator: Adobe Illustrator 15.0.0, SVG Export Plug-In . SVG Version: 6.00 Build 0)  -->
<!DOCTYPE svg PUBLIC "-//W3C//DTD SVG 1.1//EN" "http://www.w3.org/Graphics/SVG/1.1/DTD/svg11.dtd">
<svg version="1.1" id="Layer_1" xmlns="http://www.w3.org/2000/svg" xmlns:xlink="http://www.w3.org/1999/xlink" x="0px" y="0px"
	 width="85.04px" height="85.04px" viewBox="0 0 85.04 85.04" enable-background="new 0 0 85.04 85.04" xml:space="preserve">
<rect x="62.898" y="57.907" fill="#010202" width="4.654" height="2.844"/>
<rect x="18.718" y="57.907" fill="#010202" width="4.616" height="2.844"/>
<g>
	<polygon points="8.76,66.233 19.377,66.233 19.377,33.772 23.456,33.772 23.456,66.233 34.069,66.233 34.069,33.772 38.153,33.772 
		38.153,66.233 48.769,66.233 48.769,33.772 52.85,33.772 52.85,66.233 63.46,66.233 63.46,33.772 66.952,33.772 66.952,66.233 
		77.564,66.233 77.564,33.772 82.599,33.772 43.163,4.731 3.729,33.772 8.76,33.772 	"/>
	<rect x="6.729" y="67.882" width="72.28" height="3.628"/>
	<rect x="3.15" y="73.064" width="79.449" height="3.981"/>
</g>
</svg>
