<?xml version="1.0" encoding="utf-8"?>
<!-- Generator: Adobe Illustrator 15.0.0, SVG Export Plug-In . SVG Version: 6.00 Build 0)  -->
<!DOCTYPE svg PUBLIC "-//W3C//DTD SVG 1.1//EN" "http://www.w3.org/Graphics/SVG/1.1/DTD/svg11.dtd">
<svg version="1.1" id="Layer_1" xmlns="http://www.w3.org/2000/svg" xmlns:xlink="http://www.w3.org/1999/xlink" x="0px" y="0px"
	 width="85.04px" height="85.04px" viewBox="0 0 85.04 85.04" enable-background="new 0 0 85.04 85.04" xml:space="preserve">
<g>
	<path d="M80.567,44.263C80.567,23.53,63.7,6.66,42.964,6.66c-20.733,0-37.602,16.87-37.602,37.603
		c0,12.364,5.962,23.75,16.032,30.799l-3.791,3.111h5.634l8.164-8.165v-4.012h23.125v4.012l8.165,8.165h5.636l-3.793-3.111
		C74.605,68.013,80.567,56.631,80.567,44.263 M59.172,50.543H26.756V29.691h32.417V50.543z M33.892,24.081h18.146v3.711H33.892
		V24.081z M31.054,60.655c-1.563,0-2.833-1.269-2.833-2.834s1.269-2.836,2.833-2.836c1.569,0,2.837,1.271,2.837,2.836
		C33.892,59.386,32.622,60.655,31.054,60.655 M52.038,57.821c0-1.565,1.27-2.836,2.836-2.836c1.563,0,2.836,1.271,2.836,2.836
		c0,1.566-1.271,2.834-2.836,2.834C53.306,60.655,52.038,59.386,52.038,57.821 M61.965,72.954l-3.588-2.944v-4.015h4.857V21.907
		H22.691v44.091h4.859v4.012l-3.587,2.945C14.3,66.55,8.551,55.877,8.551,44.263c0-18.975,15.438-34.412,34.411-34.412
		c18.975,0,34.414,15.437,34.414,34.412C77.375,55.882,71.629,66.548,61.965,72.954"/>
</g>
</svg>
