<?xml version="1.0" encoding="utf-8"?>
<!-- Generator: Adobe Illustrator 15.0.0, SVG Export Plug-In . SVG Version: 6.00 Build 0)  -->
<!DOCTYPE svg PUBLIC "-//W3C//DTD SVG 1.1//EN" "http://www.w3.org/Graphics/SVG/1.1/DTD/svg11.dtd">
<svg version="1.1" id="Layer_1" xmlns="http://www.w3.org/2000/svg" xmlns:xlink="http://www.w3.org/1999/xlink" x="0px" y="0px"
	 width="85.04px" height="85.04px" viewBox="0 0 85.04 85.04" enable-background="new 0 0 85.04 85.04" xml:space="preserve">
<g>
	<rect x="25.249" y="4.837" width="46.062" height="31.165"/>
	
		<rect x="25.249" y="4.837" fill="none" stroke="#1A171B" stroke-width="0.735" stroke-miterlimit="3.864" width="46.062" height="31.165"/>
	<rect x="31.102" y="11.163" fill="#FFFFFF" width="35.248" height="17.61"/>
	
		<rect x="31.102" y="11.163" fill="none" stroke="#1A171B" stroke-width="0.735" stroke-miterlimit="3.864" width="35.248" height="17.61"/>
	<polygon points="24.793,40.52 36.083,79.803 61.368,79.803 71.311,40.52 	"/>
	<path d="M24.311,12.883h-6.463l-7.213,7.709v3.229h6.096c0,0,3.979-0.743,4.348-6.338h5.844"/>
	<path d="M16.267,49.35V23.908h-1.698v23.437c0,2.326-0.087,8.497-0.255,9.54c-0.168,1.044-0.44,1.527-0.812,1.527
		c-0.311,0-0.566-0.645-0.788-1.847c-0.204-1.207-0.307-7.293-0.307-9.221V23.908h-1.687V49.35c0,4.014,0.308,7.224,0.94,9.625
		c0.54,2.086,1.159,3.13,1.842,3.13c0.695,0,1.311-0.963,1.839-3.049C15.959,56.654,16.267,53.444,16.267,49.35"/>
</g>
</svg>
