<?xml version="1.0" encoding="utf-8"?>
<!-- Generator: Adobe Illustrator 15.0.0, SVG Export Plug-In . SVG Version: 6.00 Build 0)  -->
<!DOCTYPE svg PUBLIC "-//W3C//DTD SVG 1.1//EN" "http://www.w3.org/Graphics/SVG/1.1/DTD/svg11.dtd">
<svg version="1.1" id="Layer_1" xmlns="http://www.w3.org/2000/svg" xmlns:xlink="http://www.w3.org/1999/xlink" x="0px" y="0px"
	 width="85.04px" height="85.04px" viewBox="0 0 85.04 85.04" enable-background="new 0 0 85.04 85.04" xml:space="preserve">
<g>
	<rect x="27.19" y="8.153" width="31.165" height="27.425"/>
	<path d="M43.25,82.02C12.608,64.827,16.338,34.931,16.338,34.931l25.922-9.248l27.751,9.248c0,0,3.741,29.896-26.905,47.089"/>
	<path fill="none" stroke="#FFFFFF" stroke-width="5.302" d="M43.25,82.02C12.608,64.827,16.338,34.931,16.338,34.931l25.922-9.248
		l27.751,9.248c0,0,3.741,29.896-26.905,47.089"/>
	<path d="M42.453,72.629c-28.636-13.69-24.928-36.148-24.928-36.148l24.928-8.838l25.215,8.838c0,0,3.494,22.363-25.143,36.053"/>
	<path fill="none" stroke="#FFFFFF" stroke-width="1.903" stroke-miterlimit="10" d="M42.453,72.629
		c-28.636-13.69-24.928-36.148-24.928-36.148l24.928-8.838l25.215,8.838c0,0,3.494,22.363-25.143,36.053"/>
	<rect x="46.053" y="1" width="5.912" height="7.272"/>
	<line fill="none" stroke="#FFFFFF" stroke-width="1.625" x1="42.474" y1="28.65" x2="42.474" y2="80.575"/>
	<rect x="33.394" y="13.189" fill="#FFFFFF" width="6.67" height="4.73"/>
	<rect x="45.776" y="13.189" fill="#FFFFFF" width="6.67" height="4.73"/>
</g>
</svg>
