<?xml version="1.0" encoding="utf-8"?>
<!-- Generator: Adobe Illustrator 15.0.0, SVG Export Plug-In . SVG Version: 6.00 Build 0)  -->
<!DOCTYPE svg PUBLIC "-//W3C//DTD SVG 1.1//EN" "http://www.w3.org/Graphics/SVG/1.1/DTD/svg11.dtd">
<svg version="1.1" id="Layer_1" xmlns="http://www.w3.org/2000/svg" xmlns:xlink="http://www.w3.org/1999/xlink" x="0px" y="0px"
	 width="85.04px" height="85.04px" viewBox="0 0 85.04 85.04" enable-background="new 0 0 85.04 85.04" xml:space="preserve">
<g>
	<rect x="60.649" y="59.138" fill="#010202" width="4.025" height="2.459"/>
	<rect x="22.427" y="59.138" fill="#010202" width="3.993" height="2.459"/>
	<g>
		<path d="M68.708,39.165L63.463,25.62c-0.98-2.592-3.125-4.799-7.18-4.816h-7.396H36.24h-7.523
			c-4.039,0.018-6.182,2.226-7.181,4.816L16.29,39.165c-2.083,0.27-5.77,2.716-5.762,7.351v17.246h5.116v5.503
			c-0.009,6.789,9.593,6.709,9.59,0v-5.503h17.287h17.241v5.503c0.021,6.709,9.625,6.789,9.633,0v-5.503h5.117V46.516
			C74.499,41.882,70.809,39.435,68.708,39.165 M20.59,53.357c-2.452,0.007-4.438-2.041-4.431-4.558
			c-0.007-2.534,1.979-4.578,4.431-4.562c2.444-0.018,4.431,2.027,4.427,4.562C25.022,51.316,23.034,53.362,20.59,53.357
			 M42.52,39.038h-0.043H21.751l3.955-10.664c0.479-1.515,1.218-2.596,2.969-2.625h13.803h0.043h13.847
			c1.723,0.029,2.467,1.111,2.967,2.625l3.955,10.664H42.52z M64.452,53.357c-2.471,0.007-4.459-2.041-4.474-4.558
			c0.015-2.534,2.003-4.578,4.474-4.562c2.428-0.018,4.412,2.027,4.43,4.562C68.864,51.316,66.877,53.362,64.452,53.357"/>
		<rect x="33.192" y="15.622" width="18.653" height="5.182"/>
	</g>
</g>
</svg>
