<?xml version="1.0" encoding="utf-8"?>
<!-- Generator: Adobe Illustrator 15.0.0, SVG Export Plug-In . SVG Version: 6.00 Build 0)  -->
<!DOCTYPE svg PUBLIC "-//W3C//DTD SVG 1.1//EN" "http://www.w3.org/Graphics/SVG/1.1/DTD/svg11.dtd">
<svg version="1.1" id="Layer_1" xmlns="http://www.w3.org/2000/svg" xmlns:xlink="http://www.w3.org/1999/xlink" x="0px" y="0px"
	 width="155.877px" height="155.188px" viewBox="-13.123 0 155.877 155.188" enable-background="new -13.123 0 155.877 155.188"
	 xml:space="preserve">
<g>
	<rect x="114.409" y="108.614" fill="#010202" width="9.78" height="6.2"/>
	<rect x="21.574" y="108.614" fill="#010202" width="9.697" height="6.2"/>
	<path d="M138.818,84.291c-3.295-8.292-11.969-10.364-17.939-10.364H94.934v58.044l4.669-0.076
		c0.025-7.585,5.988-13.763,13.308-13.763c7.192,0,12.979,6.01,13.206,13.4l16.479-0.245v-30.421
		C142.594,100.866,142.156,92.566,138.818,84.291"/>
	<polygon fill="#FFFFFF" points="115.703,99.115 132.814,99.115 128.004,84.665 114.626,84.665 	"/>
	<polygon points="91.956,130.579 91.956,59.667 44.752,59.667 4.849,122.839 4.849,131.975 	"/>
	<polygon points="91.956,124.201 91.956,53.291 44.752,53.291 4.849,116.47 4.849,125.603 	"/>
	<polygon fill="none" stroke="#FFFFFF" stroke-width="1.428" stroke-linecap="round" stroke-linejoin="round" points="
		91.956,130.579 91.956,59.667 44.752,59.667 4.849,122.839 4.849,131.975 	"/>
	<polygon points="36.475,59.166 -12.677,122.071 4.076,122.245 41.993,59.166 	"/>
	<path d="M103.194,131.975c0-5.563,4.35-10.093,9.7-10.093c5.359,0,9.69,4.521,9.69,10.093c0,5.559-4.331,10.064-9.69,10.064
		C107.541,142.035,103.194,137.534,103.194,131.975"/>
	<path d="M103.194,131.975c0-5.563,4.35-10.093,9.7-10.093c5.359,0,9.69,4.521,9.69,10.093c0,5.559-4.331,10.064-9.69,10.064
		C107.541,142.035,103.194,137.534,103.194,131.975"/>
	<path fill="none" stroke="#1A171B" stroke-width="2.365" stroke-miterlimit="10" d="M103.194,131.975
		c0-5.563,4.35-10.093,9.7-10.093c5.359,0,9.69,4.521,9.69,10.093c0,5.559-4.331,10.064-9.69,10.064
		C107.541,142.035,103.194,137.534,103.194,131.975z"/>
	<path d="M28.057,134.173c0-6.691,5.211-12.11,11.639-12.11c6.431,0,11.634,5.429,11.634,12.11c0,6.683-5.203,12.079-11.634,12.079
		C33.268,146.251,28.057,140.855,28.057,134.173"/>
	<path d="M28.057,134.173c0-6.691,5.211-12.11,11.639-12.11c6.431,0,11.634,5.429,11.634,12.11c0,6.683-5.203,12.079-11.634,12.079
		C33.268,146.251,28.057,140.855,28.057,134.173"/>
	<path fill="none" stroke="#FFFFFF" stroke-width="1.182" stroke-miterlimit="10" d="M28.057,134.173
		c0-6.691,5.211-12.11,11.639-12.11c6.431,0,11.634,5.429,11.634,12.11c0,6.683-5.203,12.079-11.634,12.079
		C33.268,146.251,28.057,140.855,28.057,134.173z"/>
</g>
</svg>
