<?xml version="1.0" encoding="utf-8"?>
<!-- Generator: Adobe Illustrator 15.0.0, SVG Export Plug-In . SVG Version: 6.00 Build 0)  -->
<!DOCTYPE svg PUBLIC "-//W3C//DTD SVG 1.1//EN" "http://www.w3.org/Graphics/SVG/1.1/DTD/svg11.dtd">
<svg version="1.1" id="Layer_1" xmlns="http://www.w3.org/2000/svg" xmlns:xlink="http://www.w3.org/1999/xlink" x="0px" y="0px"
	 width="85.04px" height="85.04px" viewBox="0 0 85.04 85.04" enable-background="new 0 0 85.04 85.04" xml:space="preserve">
<rect x="63.452" y="59.377" fill="#010202" width="4.783" height="2.922"/>
<rect x="18.05" y="59.377" fill="#010202" width="4.743" height="2.922"/>
<g>
	<polygon points="31.301,67.609 15.234,79.771 20.365,79.771 34.649,67.609 	"/>
	<polygon fill="#1A171B" points="49.826,67.609 64.111,79.771 69.242,79.771 53.175,67.609 	"/>
	<rect x="22.373" y="74.866" width="39.062" height="2.23"/>
	<rect x="28.526" y="70.065" width="27.372" height="2.233"/>
	<path d="M40.935,65.956H26.992c-4.718,0-7.928-7.021-7.928-7.021v-37.22c0-6.318,7.326-6.621,7.326-6.621h12.34h5.417h12.339
		c0,0,7.323,0.303,7.323,6.621v37.22c0,0-3.21,7.021-7.926,7.021H41.938H40.935z"/>
	<path fill="#FFFFFF" d="M23.179,52.364c0-1.855,1.506-3.359,3.36-3.359c1.854,0,3.36,1.504,3.36,3.359
		c0,1.857-1.506,3.362-3.36,3.362C24.686,55.726,23.179,54.221,23.179,52.364"/>
	<path fill="#FFFFFF" d="M59.593,52.364c0-1.855-1.504-3.359-3.36-3.359c-1.854,0-3.358,1.504-3.358,3.359
		c0,1.857,1.505,3.362,3.358,3.362C58.089,55.726,59.593,54.221,59.593,52.364"/>
	<path d="M38.126,8.374c0-1.996,1.618-3.613,3.613-3.613s3.61,1.618,3.61,3.613c0,1.995-1.615,3.61-3.61,3.61
		S38.126,10.369,38.126,8.374"/>
	<rect x="31.302" y="65.356" width="3.713" height="4.914"/>
	<rect x="48.976" y="65.356" width="3.711" height="4.914"/>
	<rect x="25.913" y="22.902" fill="#FFFFFF" width="31.425" height="21.246"/>
</g>
</svg>
