<?xml version="1.0" encoding="utf-8"?>
<!-- Generator: Adobe Illustrator 15.0.0, SVG Export Plug-In . SVG Version: 6.00 Build 0)  -->
<!DOCTYPE svg PUBLIC "-//W3C//DTD SVG 1.1//EN" "http://www.w3.org/Graphics/SVG/1.1/DTD/svg11.dtd">
<svg version="1.1" id="Layer_1" xmlns="http://www.w3.org/2000/svg" xmlns:xlink="http://www.w3.org/1999/xlink" x="0px" y="0px"
	 width="85.04px" height="85.04px" viewBox="0 0 85.04 85.04" enable-background="new 0 0 85.04 85.04" xml:space="preserve">
<path fill="#010202" d="M70.351,4.72H15.89c-3.471,0-6.535,2.822-6.535,6.304v54.645c0,3.214,3.012,5.859,6.022,6.25v3.406
	c0,2.588,1.817,4.675,4.396,4.675h2.337c2.578,0.001,4.559-2.087,4.559-4.675V71.72h33.125v3.604c0,2.588,1.761,4.676,4.341,4.676
	h2.337c2.577,0,4.614-2.088,4.614-4.676V71.92c3.012-0.391,5.27-3.036,5.27-6.252V11.023C76.354,7.542,73.823,4.72,70.351,4.72
	 M16.883,9.436c0-1.191,1.11-2.458,2.295-2.458h47.885c1.188,0,2.517,1.267,2.517,2.458v3.955c0,1.191-1.328,1.868-2.517,1.868
	H19.178c-1.185,0-2.295-0.677-2.295-1.868V9.436z M24.201,62.781c0,0.514-0.417,0.932-0.93,0.932h-9.878
	c-0.513,0-0.929-0.418-0.929-0.932v-3.882c0-0.515,0.415-0.934,0.929-0.934h9.878c0.513,0,0.93,0.421,0.93,0.934V62.781z
	 M41.726,41.205c0,1.749-1.408,3.415-3.15,3.415H15.659c-1.744,0-3.292-1.666-3.292-3.415V21.309c0-1.751,1.548-3.039,3.292-3.039
	h22.917c1.742,0,3.15,1.288,3.15,3.039V41.205z M73.777,62.781c0,0.514-0.415,0.932-0.929,0.932h-9.878
	c-0.512,0-0.928-0.418-0.928-0.932v-3.882c0-0.515,0.416-0.934,0.928-0.934h9.878c0.513,0,0.929,0.421,0.929,0.934V62.781z
	 M74.097,41.205c0,1.749-1.77,3.415-3.514,3.415H47.669c-1.745,0-2.933-1.666-2.933-3.415V21.309c0-1.751,1.188-3.039,2.933-3.039
	h22.914c1.744,0,3.514,1.288,3.514,3.039V41.205z"/>
<rect x="63.451" y="59.378" fill="#010202" width="4.784" height="2.922"/>
<rect x="18.05" y="59.378" fill="#010202" width="4.743" height="2.922"/>
</svg>
