<?xml version="1.0" encoding="utf-8"?>
<!-- Generator: Adobe Illustrator 15.0.0, SVG Export Plug-In . SVG Version: 6.00 Build 0)  -->
<!DOCTYPE svg PUBLIC "-//W3C//DTD SVG 1.1//EN" "http://www.w3.org/Graphics/SVG/1.1/DTD/svg11.dtd">
<svg version="1.1" id="Layer_1" xmlns="http://www.w3.org/2000/svg" xmlns:xlink="http://www.w3.org/1999/xlink" x="0px" y="0px"
	 width="85.04px" height="85.04px" viewBox="0 0 85.04 85.04" enable-background="new 0 0 85.04 85.04" xml:space="preserve">
<rect x="63.452" y="59.377" fill="#010202" width="4.783" height="2.922"/>
<rect x="18.05" y="59.377" fill="#010202" width="4.743" height="2.922"/>
<g>
	<rect x="9.146" y="5.756" width="67.3" height="2.304"/>
	<path d="M80.982,75.286c0,0.958-0.781,1.736-1.743,1.736H6.355c-0.961,0-1.74-0.778-1.74-1.736v-2.048
		c0-0.966,0.779-1.745,1.74-1.745h72.884c0.962,0,1.743,0.779,1.743,1.745V75.286z"/>
	<polygon points="10.416,10.825 1.503,26.497 13.948,26.497 20.248,10.825 	"/>
	<polygon points="29.161,10.825 24.705,26.497 36.998,26.497 38.841,10.825 	"/>
	<polygon points="75.49,10.825 84.4,26.497 71.954,26.497 65.654,10.825 	"/>
	<polygon points="56.741,10.825 61.196,26.497 48.905,26.497 47.063,10.825 	"/>
	<path d="M13.789,28.835c0,3.437-2.784,6.222-6.221,6.222c-3.434,0-6.219-2.785-6.219-6.222H13.789z"/>
	<path d="M36.99,28.835c0,3.437-2.783,6.222-6.219,6.222c-3.432,0-6.222-2.785-6.222-6.222H36.99z"/>
	<path d="M61.043,28.835c0,3.437-2.785,6.222-6.219,6.222s-6.219-2.785-6.219-6.222H61.043z"/>
	<path d="M84.246,28.835c0,3.437-2.784,6.222-6.22,6.222c-3.433,0-6.218-2.785-6.218-6.222H84.246z"/>
	<path d="M78.026,36.447c-3.437,0-6.346-2.288-7.288-5.422h-8.622c-0.944,3.134-3.854,5.422-7.29,5.422
		c-3.439,0-6.347-2.288-7.289-5.422h-9.476c-0.942,3.134-3.852,5.422-7.289,5.422c-3.438,0-6.347-2.288-7.29-5.422h-8.622
		c-0.943,3.134-3.852,5.422-7.291,5.422c-0.902,0-1.765-0.166-2.57-0.454v31.318c0,0.962,0.782,1.741,1.743,1.741h72.114
		c0.961,0,1.743-0.779,1.743-1.741v-31.32C79.792,36.281,78.928,36.447,78.026,36.447 M51.562,67.297H34.033V47.74
		c0-2.94,2.385-5.323,5.324-5.323h6.882c2.939,0,5.323,2.383,5.323,5.323V67.297z"/>
</g>
</svg>
