<?xml version="1.0" encoding="utf-8"?>
<!-- Generator: Adobe Illustrator 15.0.0, SVG Export Plug-In . SVG Version: 6.00 Build 0)  -->
<!DOCTYPE svg PUBLIC "-//W3C//DTD SVG 1.1//EN" "http://www.w3.org/Graphics/SVG/1.1/DTD/svg11.dtd">
<svg version="1.1" id="Layer_1" xmlns="http://www.w3.org/2000/svg" xmlns:xlink="http://www.w3.org/1999/xlink" x="0px" y="0px"
	 width="85.04px" height="85.04px" viewBox="0 0 85.04 85.04" enable-background="new 0 0 85.04 85.04" xml:space="preserve">
<g>
	<path d="M43.844,5.678c-0.36-0.42-0.887-0.662-1.443-0.662c-0.554,0-1.08,0.242-1.442,0.662c-2.014,2.345-3.122,5.333-3.122,8.426
		v16.774l-31.945,25.1v7.605l31.946-12.168v11.406c0,1.063,0.262,2.109,0.759,3.045L27.19,73.472v6.085l15.211-6.085l15.212,6.085
		v-6.085l-11.41-7.605c0.5-0.936,0.763-1.981,0.763-3.045V51.416l31.946,12.168v-7.605l-31.946-25.1V14.104
		C46.966,11.012,45.858,8.023,43.844,5.678"/>
</g>
</svg>
