<?xml version="1.0" encoding="utf-8"?>
<!-- Generator: Adobe Illustrator 15.0.0, SVG Export Plug-In . SVG Version: 6.00 Build 0)  -->
<!DOCTYPE svg PUBLIC "-//W3C//DTD SVG 1.1//EN" "http://www.w3.org/Graphics/SVG/1.1/DTD/svg11.dtd">
<svg version="1.1" id="Layer_1" xmlns="http://www.w3.org/2000/svg" xmlns:xlink="http://www.w3.org/1999/xlink" x="0px" y="0px"
	 width="85.04px" height="85.04px" viewBox="0 0 85.04 85.04" enable-background="new 0 0 85.04 85.04" xml:space="preserve">
<rect x="63.452" y="59.377" fill="#010202" width="4.783" height="2.922"/>
<rect x="18.05" y="59.377" fill="#010202" width="4.743" height="2.922"/>
<g>
	<path d="M43.627,46.288v33.724l15.988-6.671l1.454-0.607l15.987-6.673V32.338L43.627,46.288z M51.897,76.25V59.158l7.719-3.22
		v17.093L51.897,76.25z M68.789,69.202l-7.719,3.221V55.33l7.719-3.22V69.202z"/>
	<path d="M8.693,66.418L42.171,80.02V46.292L8.693,32.69V66.418z M38.053,70.55l-7.828-3.181V56.152l7.828,3.181V70.55z
		 M28.769,66.778l-7.46-3.031V52.528l7.46,3.032V66.778z M12.812,49.078l7.041,2.86v11.219l-7.041-2.862V49.078z"/>
	<path d="M43.627,4.648c-9.379,0-16.983,7.604-16.983,16.982c0,9.379,7.604,16.983,16.983,16.983c9.38,0,16.983-7.604,16.983-16.983
		C60.611,12.252,53.007,4.648,43.627,4.648 M54.287,24.652h-7.639v7.637h-6.04v-7.637H32.97v-6.041h7.638v-7.639h6.04v7.639h7.639
		V24.652z"/>
	<path d="M62.191,26.327c-2.097,8.311-9.602,14.47-18.563,14.47c-9.079,0-16.665-6.319-18.646-14.793L9.965,31.636l32.932,13.377
		l32.891-13.722L62.191,26.327z"/>
</g>
</svg>
