<?xml version="1.0" encoding="utf-8"?>
<!-- Generator: Adobe Illustrator 15.0.0, SVG Export Plug-In . SVG Version: 6.00 Build 0)  -->
<!DOCTYPE svg PUBLIC "-//W3C//DTD SVG 1.1//EN" "http://www.w3.org/Graphics/SVG/1.1/DTD/svg11.dtd">
<svg version="1.1" id="Layer_1" xmlns="http://www.w3.org/2000/svg" xmlns:xlink="http://www.w3.org/1999/xlink" x="0px" y="0px"
	 width="85.04px" height="85.04px" viewBox="0 0 85.04 85.04" enable-background="new 0 0 85.04 85.04" xml:space="preserve">
<g>
	<path d="M57.128,11.271c-0.739,0.042-1.455,0.353-1.984,0.948l-2.375,2.634l16.454,14.77l2.362-2.621
		c1.068-1.189,0.97-3.025-0.221-4.088L59.233,12.012C58.637,11.476,57.869,11.231,57.128,11.271L57.128,11.271z M53.001,17.565
		L37.764,34.53l13.499,12.121l3.775-4.219c0.764-0.849,2.084-0.918,2.934-0.155l20.814,18.688c1.357,1.223,3.447,1.414,4.868,0.271
		c1.81-1.46,1.823-4.104,0.169-5.594L62.878,36.813c-0.852-0.751-0.935-2.05-0.17-2.908l3.791-4.216L53.001,17.565z M35.053,34.592
		l-2.361,2.636c-1.07,1.189-0.982,3.012,0.208,4.074l12.146,10.916c1.188,1.07,3.023,0.971,4.089-0.219l2.36-2.637L35.053,34.592z
		 M28.564,58.056c-2.339,0-4.231,1.896-4.231,4.231V66h36.364V62.29h-0.01c0-2.338-1.895-4.231-4.23-4.231H28.566L28.564,58.056
		L28.564,58.056z M14.936,69.79v4.375c0,1.967,1.589,3.568,3.556,3.568h48.021c1.967,0,3.557-1.604,3.557-3.568V69.79H14.936z"/>
</g>
</svg>
