<?xml version="1.0" encoding="utf-8"?>
<!-- Generator: Adobe Illustrator 15.0.0, SVG Export Plug-In . SVG Version: 6.00 Build 0)  -->
<!DOCTYPE svg PUBLIC "-//W3C//DTD SVG 1.1//EN" "http://www.w3.org/Graphics/SVG/1.1/DTD/svg11.dtd">
<svg version="1.1" id="Layer_1" xmlns="http://www.w3.org/2000/svg" xmlns:xlink="http://www.w3.org/1999/xlink" x="0px" y="0px"
	 width="85.04px" height="85.04px" viewBox="0 0 85.04 85.04" enable-background="new 0 0 85.04 85.04" xml:space="preserve">
<rect x="63.452" y="59.377" fill="#010202" width="4.783" height="2.922"/>
<rect x="18.05" y="59.377" fill="#010202" width="4.743" height="2.922"/>
<g>
	<path d="M42.875,4.481c8.62,0,15.607,6.988,15.607,15.608c0,8.619-6.987,15.607-15.607,15.607s-15.608-6.988-15.608-15.607
		C27.267,11.469,34.254,4.481,42.875,4.481"/>
	<path d="M16.232,64.838c0.343-0.486,0.375-0.503,0.865-0.952c0.911-0.838,1.466-1.241,1.378-2.67
		c-0.057-0.91-0.832-1.794-0.711-2.496c0.119-0.694,0.652-0.426,0.568-1.322c-0.052-0.574-0.359-1.04-0.765-1.437
		c-0.363-0.357-1.107-0.496-1.379-0.943c-0.243-0.398,0.032-0.993-0.069-1.436c-0.303-1.286-1.334-1.843-2.476-2.134
		c-1.424-0.359-1.712-0.349-1.683-1.795c0.026-1.194,0.007-1.409-0.429-2.463l-0.358-0.458c-0.938-0.118-1.869,0.694-2.475,1.345
		c-1.351,1.451-2.925,3.286-3.786,5.057c-0.914,1.882-0.789,4.506-0.338,6.512c0.947,4.207,5.736,11.496,10.618,6.6
		C15.62,65.815,15.891,65.324,16.232,64.838"/>
	<path d="M68.545,66.064l-0.248-0.367c-0.222-0.317-0.222-0.317-0.652-0.712l-0.166-0.151c-0.893-0.815-1.818-1.657-1.692-3.711
		c0.042-0.696,0.304-1.288,0.515-1.767c0.043-0.095,0.095-0.22,0.141-0.301c-0.319-0.364-0.597-0.902-0.512-1.797
		c0.082-0.863,0.487-1.658,1.207-2.365c0.323-0.316,0.692-0.502,0.987-0.646c0.005-0.005,0.01-0.008,0.015-0.008
		c-0.026-0.273-0.05-0.621,0.041-1c0.388-1.645,1.584-2.735,3.561-3.24c0,0,0.289-0.067,0.456-0.109v-18.57l-29.322,8.666
		l-29.317-8.666v18.57C13.722,49.933,14.011,50,14.011,50c1.975,0.504,3.173,1.594,3.562,3.238c0.088,0.381,0.068,0.727,0.04,1.001
		c0.005,0,0.01,0.003,0.016,0.008c0.295,0.146,0.664,0.33,0.985,0.647c0.722,0.706,1.127,1.501,1.209,2.365
		c0.082,0.893-0.194,1.431-0.512,1.796c0.043,0.082,0.099,0.207,0.142,0.301c0.208,0.479,0.471,1.07,0.513,1.768
		c0.126,2.053-0.798,2.895-1.693,3.71l-0.166,0.151c-0.43,0.396-0.43,0.396-0.65,0.713l-0.247,0.366
		c-0.254,0.383-0.542,0.819-0.955,1.23c-0.852,0.855-1.756,1.416-2.695,1.741v2.848l29.315,8.136l29.319-8.138v-2.847
		c-0.938-0.324-1.843-0.886-2.695-1.742C69.083,66.882,68.797,66.447,68.545,66.064"/>
	<path d="M80.836,53.132c-0.863-1.771-2.438-3.606-3.786-5.058c-0.607-0.648-1.534-1.463-2.477-1.344l-0.356,0.457
		c-0.438,1.054-0.455,1.269-0.43,2.463c0.028,1.447-0.257,1.435-1.682,1.795c-1.143,0.292-2.172,0.848-2.477,2.134
		c-0.103,0.442,0.175,1.039-0.069,1.437c-0.272,0.447-1.015,0.586-1.379,0.942c-0.404,0.397-0.713,0.863-0.766,1.437
		c-0.083,0.897,0.451,0.629,0.568,1.322c0.12,0.703-0.652,1.585-0.71,2.496c-0.087,1.431,0.469,1.833,1.379,2.67
		c0.49,0.451,0.521,0.465,0.865,0.953c0.341,0.482,0.609,0.978,1.037,1.404c4.88,4.896,9.669-2.393,10.617-6.6
		C81.625,57.638,81.751,55.014,80.836,53.132"/>
</g>
</svg>
