<?xml version="1.0" encoding="utf-8"?>
<!-- Generator: Adobe Illustrator 15.0.0, SVG Export Plug-In . SVG Version: 6.00 Build 0)  -->
<!DOCTYPE svg PUBLIC "-//W3C//DTD SVG 1.1//EN" "http://www.w3.org/Graphics/SVG/1.1/DTD/svg11.dtd">
<svg version="1.1" id="Layer_1" xmlns="http://www.w3.org/2000/svg" xmlns:xlink="http://www.w3.org/1999/xlink" x="0px" y="0px"
	 width="85.04px" height="85.04px" viewBox="0 0 85.04 85.04" enable-background="new 0 0 85.04 85.04" xml:space="preserve">
<g>
	<path fill="#010202" d="M69.621,6.72H16.606c-3.379,0-6.361,2.748-6.361,6.137v53.193c0,3.129,2.932,5.703,5.862,6.084v3.315
		c0,2.52,1.769,4.552,4.279,4.552h2.275c2.509,0,4.438-2.032,4.438-4.552v-3.51h32.244v3.51c0,2.52,1.715,4.552,4.227,4.552h2.274
		c2.509,0,4.492-2.032,4.492-4.552v-3.313c2.932-0.381,5.13-2.957,5.13-6.086V12.855C75.464,9.467,73,6.72,69.621,6.72
		 M17.573,11.311c0-1.159,1.081-2.393,2.234-2.393h46.612c1.156,0,2.451,1.233,2.451,2.393v3.85c0,1.159-1.293,1.818-2.451,1.818
		H19.807c-1.153,0-2.234-0.659-2.234-1.818V11.311z M24.697,63.239c0,0.5-0.406,0.907-0.905,0.907h-9.616
		c-0.5,0-0.904-0.407-0.904-0.907v-3.779c0-0.502,0.404-0.909,0.904-0.909h9.616c0.5,0,0.905,0.409,0.905,0.909V63.239z
		 M41.756,42.236c0,1.702-1.371,3.324-3.066,3.324H16.382c-1.698,0-3.205-1.622-3.205-3.324V22.868c0-1.704,1.507-2.958,3.205-2.958
		H38.69c1.695,0,3.066,1.254,3.066,2.958V42.236z M72.956,63.239c0,0.5-0.404,0.907-0.904,0.907h-9.615
		c-0.499,0-0.904-0.407-0.904-0.907v-3.779c0-0.502,0.405-0.909,0.904-0.909h9.615c0.499,0,0.904,0.409,0.904,0.909V63.239z
		 M73.267,42.236c0,1.702-1.724,3.324-3.421,3.324H47.541c-1.698,0-2.854-1.622-2.854-3.324V22.868c0-1.704,1.156-2.958,2.854-2.958
		h22.306c1.697,0,3.421,1.254,3.421,2.958V42.236z"/>
	<rect x="62.905" y="59.925" fill="#010202" width="4.656" height="2.845"/>
	<rect x="18.709" y="59.925" fill="#010202" width="4.617" height="2.845"/>
</g>
</svg>
